<?xml version="1.0" encoding="UTF-8"?>
<!DOCTYPE svg PUBLIC "-//W3C//DTD SVG 1.1//EN" "http://www.w3.org/Graphics/SVG/1.1/DTD/svg11.dtd">
<!-- Creator: CorelDRAW 2019 (64 Bit) -->
<svg xmlns="http://www.w3.org/2000/svg" xml:space="preserve" width="50px" height="50px" version="1.1" style="shape-rendering:geometricPrecision; text-rendering:geometricPrecision; image-rendering:optimizeQuality; fill-rule:evenodd; clip-rule:evenodd"
viewBox="0 0 3.61 3.61"
 xmlns:xlink="http://www.w3.org/1999/xlink"
 xmlns:xodm="http://www.corel.com/coreldraw/odm/2003">
 <defs>
  <style type="text/css">
   <![CDATA[
    .fil0 {fill:white}
   ]]>
  </style>
 </defs>
 <g id="Camada_x0020_1">
  <metadata id="CorelCorpID_0Corel-Layer"/>
  <g>
   <path class="fil0" d="M1.05 0l1.51 0c0.58,0 1.05,0.47 1.05,1.05l0 1.51c0,0.58 -0.47,1.05 -1.05,1.05l-1.51 0c-0.58,0 -1.05,-0.47 -1.05,-1.05l0 -1.51c0,-0.58 0.47,-1.05 1.05,-1.05l0 0zm-0.04 0.36c-0.36,0 -0.65,0.29 -0.65,0.65l0 1.59c0,0.36 0.29,0.65 0.65,0.65l1.59 0c0.36,0 0.65,-0.29 0.65,-0.65l0 -1.59c0,-0.36 -0.29,-0.65 -0.65,-0.65l-1.59 0 0 0zm1.74 0.27c0.13,0 0.23,0.1 0.23,0.23 0,0.12 -0.1,0.22 -0.23,0.22 -0.12,0 -0.22,-0.1 -0.22,-0.22 0,-0.13 0.1,-0.23 0.22,-0.23l0 0zm-0.95 0.27c0.5,0 0.91,0.41 0.91,0.9 0,0.5 -0.41,0.91 -0.91,0.91 -0.49,0 -0.9,-0.41 -0.9,-0.91 0,-0.49 0.41,-0.9 0.9,-0.9l0 0zm0 0.36c-0.29,0 -0.54,0.25 -0.54,0.54 0,0.3 0.25,0.55 0.54,0.55 0.3,0 0.55,-0.25 0.55,-0.55 0,-0.29 -0.25,-0.54 -0.55,-0.54z"/>
  </g>
 </g>
</svg>
